name 900006_25rea_lsw
datacolumns 54
datarows 8
range 1.0933300000000004 1.1773300000000004
cursor 1.0 1.0 0.0
keys m_key
wrap
enforce_loops no
enforce_constraints no
calc_derivatives 0.012000
event_color 1.000000 0.000000 1.000000
endheader

time	calcn_r_tx	calcn_r_ty	calcn_r_tz	calcn_r_r1	calcn_r_r2	calcn_r_r3	calcn_l_tx	calcn_l_ty	calcn_l_tz	calcn_l_r1	calcn_l_r2	calcn_l_r3	pelvis_tz	pelvis_tx	pelvis_ty	pelvis_tilt	pelvis_list	pelvis_rotation	hip_flexion_r	hip_adduction_r	hip_rotation_r	knee_angle_r	ankle_angle_r	subtalar_angle_r	mtp_angle_r	hip_flexion_l	hip_adduction_l	hip_rotation_l	knee_angle_l	ankle_angle_l	subtalar_angle_l	mtp_angle_l	lumbar_extension	lumbar_bending	lumbar_rotation	ground_force_px	ground_force_py	ground_force_pz	ground_force_vx	ground_force_vy	ground_force_vz	ground_force_px	ground_force_py	ground_force_pz	ground_force_vx	ground_force_vy	ground_force_vz	ground_torque_x	ground_torque_y	ground_torque_z	ground_torque_x	ground_torque_y	ground_torque_z	
      1.0933300000000004	     -1.6216913907318895	      0.0369092600803931	      0.3371694840008394	      3.4028125255133710	     -3.1921778452814951	     -0.8210602071946288	     -1.6830681671527417	      0.1061899252161365	      0.2067158685673537	      0.1650000010870368	     -2.8558521781599278	    -19.9298021375858740	      0.3076931640608773	     -1.4885872733412229	      0.8394897242448636	      2.6236973115033826	      2.2043624205680983	     -2.9419402914271591	      1.9515249012148943	      1.8736066688551578	      0.5732900728785809	    -11.7916298182015480	      6.4758512272383388	      0.0000000000000000	      0.0000000000000000	     12.4964064850742120	      1.8357585449012002	     -2.3623466508530564	    -43.7886021417816520	      9.0364877985605609	      0.0000000000000000	      0.0000000000000000	     -9.1035466498154491	      1.8316632479278272	     -5.0671697330004140	     -1.5305159867040024	      0.0000000000000000	      0.3339464908401048	    -13.3277270098654570	    403.2582812819997600	    -10.3094050899357350	     -1.8983379845468749	      0.0000000000000000	      0.2227423235800452	     -0.0000000002131348	      0.0000000009476917	      0.0000000000431726	      0.0000000000000000	      0.8231963359847303	      0.0000000000000000	      0.0000000000000000	      0.0000000000176462	      0.0000000000000000	
      1.1053300000000004	     -1.6217053422468797	      0.0365682556852573	      0.3371058823397015	      3.4176748286302132	     -3.2935462080047553	     -0.8504920170320146	     -1.6577538892764190	      0.0993134011538488	      0.2077131377616105	      0.3061773514682090	     -2.6760253539352674	    -17.0151323089718820	      0.3087207909893913	     -1.4825926873230890	      0.8395150884416472	      2.5358236737747912	      2.4559500872660043	     -3.0328393673435867	      1.2157647880730376	      1.6403478382377035	      0.6099910098824014	    -11.0688462232607780	      6.5590676056152288	      0.0000000000000000	      0.0000000000000000	     13.5697553116298370	      1.8970379689329564	     -2.8094704046316386	    -42.4403153652817120	      9.6391420340154195	      0.0000000000000000	      0.0000000000000000	     -9.0938278174181413	      1.4708909286490734	     -5.0526754124908422	     -1.5287896779827403	      0.0000000000000000	      0.3342203328403468	    -11.2463442998159910	    403.0239387778156600	     -9.7610972767972388	     -1.8976530703299044	      0.0000000000000000	      0.2225222384370983	      0.0000000000134327	     -0.0000000001820711	     -0.0000000000046611	      0.0000000000000000	      0.9302837841932599	      0.0000000000000000	      0.0000000000000000	     -0.0000000000022305	      0.0000000000000000	
      1.1173300000000004	     -1.6217722683789855	      0.0362526053382111	      0.3368485968873101	      3.4274795373023723	     -3.4988554258305449	     -0.8382699402159421	     -1.6322590495797358	      0.0928547036345618	      0.2087120753848354	      0.4186605205072652	     -2.5038743821876257	    -14.3422837673685990	      0.3096924640611769	     -1.4765690857674738	      0.8393877925104529	      2.4510380988526794	      2.6383501370902116	     -3.1565694480669615	      0.4929747828948952	      1.4750446674409181	      0.5808500154579136	    -10.3955386161655930	      6.7168900729766854	      0.0000000000000000	      0.0000000000000000	     14.5784165082246010	      1.9140675300457572	     -3.2135316643210574	    -40.9974182222311470	      9.9605980043076876	      0.0000000000000000	      0.0000000000000000	     -9.0733199051608011	      1.2042551663222074	     -4.9408594716127752	     -1.5268213046515817	      0.0000000000000000	      0.3345869642581730	     -9.2004199040254075	    403.5032260223873100	     -9.5587970418201493	     -1.8968962778229586	      0.0000000000000000	      0.2223380427362935	      0.0000000000109673	     -0.0000000000065029	     -0.0000000000015513	      0.0000000000000000	      1.0156867221969670	      0.0000000000000000	      0.0000000000000000	     -0.0000000000005217	      0.0000000000000000	
      1.1293300000000004	     -1.6219033895765618	      0.0359876793015702	      0.3363589195164237	      3.4305270753274630	     -3.8307712754944765	     -0.8013391221492089	     -1.6065623505081099	      0.0868031917555682	      0.2097074632938670	      0.4990396890885868	     -2.3638586844157317	    -11.8979347588956940	      0.3105890433368704	     -1.4705415017448666	      0.8391237030585911	      2.3775951179435784	      2.7509233441115120	     -3.3036308403495269	     -0.2149129095846583	      1.3777476677893425	      0.4547291685326060	     -9.7928340773048248	      6.9436989342710733	      0.0000000000000000	      0.0000000000000000	     15.5192531774023910	      1.8953737185911628	     -3.5405179663295931	    -39.4559287357682250	     10.0048498736776390	      0.0000000000000000	      0.0000000000000000	     -9.0606095511914333	      1.0337454011098439	     -4.7391077519077029	     -1.5244964318940621	      0.0000000000000000	      0.3350589814711052	     -7.2972743623336749	    404.6478560105533700	     -9.5611566778684089	     -1.8960394118048376	      0.0000000000000000	      0.2222139838780262	     -0.0000000000047923	      0.0000000000154628	      0.0000000000008780	      0.0000000000000000	      1.0882604398634907	      0.0000000000000000	      0.0000000000000000	      0.0000000000003433	      0.0000000000000000	
      1.1413300000000004	     -1.6220362360870657	      0.0357775505315886	      0.3356550989068046	      3.4252109208073143	     -4.2865962734922913	     -0.7646794372016634	     -1.5806941761617648	      0.0811727246788090	      0.2107447494026501	      0.5473866371462501	     -2.2347467238717180	     -9.6656678343704598	      0.3114100246874552	     -1.4645371081842562	      0.8387358476899047	      2.3206319016713426	      2.8052734409834974	     -3.4615982478076033	     -0.8971173564235759	      1.3366034710083172	      0.2198846621950858	     -9.2791855109509580	      7.2174307518771137	      0.0000000000000000	      0.0000000000000000	     16.3870206634755780	      1.8466026549233889	     -3.8016252942208051	    -37.8091061975237890	      9.7815500645600029	      0.0000000000000000	      0.0000000000000000	     -9.0701212842033279	      0.9423953350300963	     -4.4780399355778044	     -1.5217529011960005	      0.0000000000000000	      0.3356076353259376	     -5.7159128492586060	    406.8558938855645700	     -9.6003783618713872	     -1.8950989835951297	      0.0000000000000000	      0.2221640967369639	      0.0000000000008577	     -0.0000000000048971	     -0.0000000000001909	      0.0000000000000000	      1.1662180944614728	      0.0000000000000000	      0.0000000000000000	     -0.0000000000000809	      0.0000000000000000	
      1.1533300000000004	     -1.6220554669068152	      0.0356089727676249	      0.3347808254403093	      3.4115267265438369	     -4.8456717164739000	     -0.7509415282534789	     -1.5548196784655586	      0.0760104159383903	      0.2118774034601736	      0.5635141033798874	     -2.0687226507725609	     -7.6349193510861122	      0.3121782925849160	     -1.4585603179463054	      0.8382325854101281	      2.2800638355570730	      2.8198333536873057	     -3.6211576244090535	     -1.5357807964048948	      1.3344966547059067	     -0.1155564938383571	     -8.8696456473606897	      7.5131208408822383	      0.0000000000000000	      0.0000000000000000	     17.1712217673128930	      1.7702131461612052	     -4.0412400060403337	    -36.0559518799925560	      9.3111974056141182	      0.0000000000000000	      0.0000000000000000	     -9.1028254120972267	      0.9012332057090096	     -4.1990147419565673	     -1.5186801820041764	      0.0000000000000000	      0.3361654075175662	     -4.5205107450109576	    410.4677606237771700	     -9.6245595061401357	     -1.8940623923996809	      0.0000000000000000	      0.2222089602529392	      0.0000000000000492	      0.0000000000005776	      0.0000000000000027	      0.0000000000000000	      1.2507136614755161	      0.0000000000000000	      0.0000000000000000	      0.0000000000000032	      0.0000000000000000	
      1.1653300000000004	     -1.6218698780864738	      0.0354700462052899	      0.3337902270663171	      3.3913265520491955	     -5.4709292316423452	     -0.7790860932097157	     -1.5291453322877351	      0.0713552031321539	      0.2131203779303833	      0.5463423327738665	     -1.8259918153875669	     -5.7906535210862984	      0.3129258555075830	     -1.4525969667703027	      0.8376252458758913	      2.2545627468785088	      2.8118021696554689	     -3.7779959685444924	     -2.1168255547749490	      1.3565183998095085	     -0.5221228359818189	     -8.5751790479127834	      7.8101357603628072	      0.0000000000000000	      0.0000000000000000	     17.8584854336921910	      1.6684740288758300	     -4.3041271255392699	    -34.1987349830717310	      8.6265727772064889	      0.0000000000000000	      0.0000000000000000	     -9.1529836174466155	      0.8818464222370774	     -3.9366925882751533	     -1.5154297215728394	      0.0000000000000000	      0.3367413404952709	     -3.5833062611131208	    414.9901047212367800	     -9.7449141176507617	     -1.8928808734613347	      0.0000000000000000	      0.2223500827382174	     -0.0000000000000806	      0.0000000000001595	      0.0000000000000132	      0.0000000000000000	      1.3238879641580643	      0.0000000000000000	      0.0000000000000000	      0.0000000000000049	      0.0000000000000000	
      1.1773300000000004	     -1.6214557553969950	      0.0353578291766539	      0.3327576065743652	      3.3657330021141862	     -6.1129367304065756	     -0.8609730104693156	     -1.5038142995719028	      0.0672166339812151	      0.2144294683012445	      0.4960029841625506	     -1.5022681834448341	     -4.1056183778284074	      0.3136724328823396	     -1.4466278445164837	      0.8369291033345971	      2.2431713183027595	      2.7911675937055431	     -3.9334987874555432	     -2.6350499943493562	      1.3929512708150908	     -0.9509477743626158	     -8.4014053116800635	      8.0976168451202355	      0.0000000000000000	      0.0000000000000000	     18.4395672868016870	      1.5459776758965107	     -4.6072602671097291	    -32.2412767557190560	      7.7698314812781266	      0.0000000000000000	      0.0000000000000000	     -9.2147271898707466	      0.8682132025229812	     -3.7056491681249826	     -1.5120220861854035	      0.0000000000000000	      0.3373764703945551	     -2.8057573205246014	    419.6576646382365500	    -10.0641226530569220	     -1.8915494584821082	      0.0000000000000000	      0.2225713854061425	      0.0000000000000242	     -0.0000000000000967	     -0.0000000000000047	      0.0000000000000000	      1.3802656119990984	      0.0000000000000000	      0.0000000000000000	     -0.0000000000000019	      0.0000000000000000	
